<svg width="70" height="51" viewBox="0 0 70 51" fill="none" xmlns="http://www.w3.org/2000/svg">
<path d="M33.9998 41.1873H34.7509V35.1777H33.9998V41.1873Z" fill="#3B5998"/>
<path fill-rule="evenodd" clip-rule="evenodd" d="M57.2879 28.98C47.522 18.8391 37.5684 8.50977 34.3756 8.50977C31.3708 8.50977 21.4172 18.8391 11.6513 28.98H11.4636C11.4636 29.1684 11.6513 29.1684 11.6513 29.1684H11.8393C13.3416 28.2295 20.2903 22.9707 23.1074 22.9707C24.0466 22.9707 25.5488 23.5341 27.2391 24.473C24.9854 26.727 23.1074 28.7926 22.9197 28.9803C22.9197 29.1687 22.9197 29.1687 23.1074 29.1687C24.0466 28.6049 26.3003 26.9147 28.7417 25.4121C31.3704 27.1024 34.0002 28.9803 34.3752 29.1687H34.5633C34.939 28.9803 37.5681 27.1024 40.1975 25.4121C42.6389 26.9147 44.8926 28.6049 45.8311 29.1687C45.8311 29.1687 46.0191 29.1687 46.0191 28.9803C45.8311 28.7926 43.7654 26.727 41.512 24.473C43.2023 23.5345 44.8926 22.9707 45.8311 22.9707C48.6485 22.9707 55.5973 28.2295 57.0995 29.1684H57.2875C57.2875 29.1684 57.4752 29.1684 57.4752 28.98H57.2879ZM34.3752 11.8903C35.6901 11.8903 37.7561 12.8294 39.6341 13.956C38.3195 14.3317 36.4416 15.8343 34.3752 17.7122C32.4973 15.8343 30.4316 14.3317 29.3048 13.956C31.1827 12.8294 33.2487 11.8903 34.3752 11.8903ZM28.7417 23.1584C26.8637 21.4682 24.7977 19.9659 23.4828 19.5902C25.5488 18.2756 27.4268 17.3365 28.7417 17.3365C29.6805 17.3365 31.3704 18.0876 33.061 19.0268C31.3704 20.5293 28.9294 23.1584 28.7417 23.1584ZM34.3752 28.7923C33.9998 28.4169 32.3096 26.539 30.2436 24.4726C31.9339 23.5341 33.4364 22.9704 34.3752 22.9704C35.5021 22.9704 37.0047 23.5338 38.6949 24.4726C36.6293 26.5393 34.9393 28.4172 34.3752 28.7923ZM40.1978 23.1584C40.0098 23.1584 37.5684 20.5293 35.8781 19.0268C37.5684 18.0876 39.259 17.3365 40.1978 17.3365C41.3246 17.3365 43.3903 18.2756 45.4563 19.5902C44.1414 19.9659 42.0758 21.4682 40.1978 23.1584ZM11.4636 39.31H7.33193L9.3976 35.9294L11.4636 39.31ZM5.26562 41.1876H6.20477L6.95589 39.8727H11.839L12.5901 41.1876H13.3412L9.96102 35.178H8.83418L5.26562 41.1876ZM20.8537 38.1825V35.9291H24.61C25.7365 35.9291 25.9245 36.1168 25.9245 36.6806V37.2437C25.9245 37.9951 25.5488 38.1825 24.7977 38.1825H20.8537ZM20.1026 41.1876H20.8537V38.7462H24.7977C25.5491 38.7462 25.9245 38.9339 25.9245 39.8727V41.1876H26.6757V39.685C26.6757 39.1219 26.488 38.7462 25.7365 38.5585C26.3003 38.3702 26.8637 38.1825 26.8637 37.432V36.8683C26.8637 35.7417 26.488 35.178 24.7977 35.178H20.1026V41.1876Z" fill="#3B5998"/>
<path fill-rule="evenodd" clip-rule="evenodd" d="M48.2717 39.6853C48.2717 40.2491 48.084 40.4368 47.3328 40.4368H43.0135V38.3704H47.1451C47.8966 38.3704 48.2717 38.5588 48.2717 39.3099V39.6853ZM48.084 37.0562C48.084 37.62 47.5205 37.8077 47.1451 37.8077H43.0135V35.9297H47.1451C47.5209 35.9297 48.084 35.9297 48.084 36.4928V37.0562ZM42.2617 41.1879H47.3325C48.2713 41.1879 49.0231 40.8125 49.0231 39.873V39.1222C49.0231 38.3705 48.4597 37.995 47.8963 37.995C48.6477 37.995 48.8351 37.4319 48.8351 37.0562V36.4925C48.8351 35.9294 48.4597 35.1783 47.3325 35.1783H42.2617V41.1879ZM61.6058 39.3102H57.6621L59.7281 35.9297L61.6058 39.3102ZM55.5961 41.1879H56.535L57.2864 39.873H61.9815L62.7326 41.1879H63.6717L60.1035 35.1783H59.1644L55.5961 41.1879ZM63.296 35.9297C63.296 35.5543 63.6717 35.1783 64.0475 35.1783C64.6106 35.1783 64.7989 35.5543 64.7989 35.9297C64.7989 36.4928 64.6106 36.8685 64.0475 36.8685C63.6717 36.8685 63.296 36.4928 63.296 35.9297ZM63.1083 35.9297C63.1083 36.4928 63.4837 37.0562 64.0472 37.0562C64.6103 37.0562 64.986 36.4925 64.986 35.9297C64.986 35.5543 64.6099 34.9902 64.0472 34.9902C63.4837 34.9899 63.1083 35.5543 63.1083 35.9297ZM63.6717 36.4928H63.8595V36.1174H64.0475L64.4229 36.4928H64.6106L64.2352 36.1174C64.4229 36.1174 64.6106 35.9297 64.6106 35.742C64.6106 35.5543 64.4229 35.366 64.0475 35.366H63.6717V36.4928ZM63.8595 35.9297V35.5543H64.0475C64.2352 35.5543 64.4229 35.5543 64.4229 35.742C64.4229 35.9297 64.2352 35.9297 64.0475 35.9297H63.8595Z" fill="#3B5998"/>
</svg>
