<svg width="254" height="36" viewBox="0 0 254 36" fill="none" xmlns="http://www.w3.org/2000/svg">
<path d="M124.899 17.8694L123.94 19.2953C122.486 18.2626 120.745 17.7111 118.961 17.7185C114.907 17.7678 110.869 20.5702 110.724 25.4545C110.783 29.7198 114.21 33.092 118.961 33.1906C120.745 33.1979 122.486 32.6464 123.94 31.6138L124.899 33.0335C123.161 34.2549 121.086 34.9071 118.961 34.8998C112.979 34.8936 109 30.6129 109 25.4545C109 20.2962 112.979 16.0001 118.961 16.0001C121.087 15.9924 123.162 16.6458 124.899 17.8694Z" fill="#96A3BC"/>
<path d="M138.702 17L145.285 35.0374H143.472L141.685 30.1377H133.615L131.814 35.0374H130L136.595 17H138.702ZM134.236 28.4377H141.068L137.65 19.0849L134.236 28.4377Z" fill="#96A3BC"/>
<path d="M152.175 17L158.961 26.8333L165.748 17H167.908V35.0374H166.202V19.3313L158.958 29.839L151.709 19.3313V35.0374H150V17H152.175Z" fill="#96A3BC"/>
<path d="M178.547 17C182.347 17 185.444 19.7717 185.444 23.5689C185.444 27.366 182.359 30.1377 178.547 30.1377H174.709V35.0374H173V17H178.547ZM174.709 28.4316H178.547C181.419 28.4316 183.738 26.4421 183.738 23.5689C183.738 20.6956 181.419 18.7061 178.547 18.7061H174.709V28.4316Z" fill="#96A3BC"/>
<path d="M198.69 17L205.273 35.0374H203.459L201.682 30.1377H193.603L191.811 35.0374H190L196.583 17H198.69ZM194.223 28.4377H201.065L197.638 19.0849L194.223 28.4377Z" fill="#96A3BC"/>
<path d="M211.709 17V35.0374H210V17H211.709Z" fill="#96A3BC"/>
<path d="M233.649 18.4465L232.538 19.7184C230.988 18.3882 229.002 17.6716 226.958 17.7043C222.241 17.7043 218.715 20.7162 218.715 25.4435C218.715 29.7026 222.371 33.1856 226.958 33.1856C228.528 33.1856 230.854 32.7237 232.103 31.6027L232.048 25.9085H228.226V24.1254H233.748L233.825 32.2802C232.446 33.7769 230.024 34.9072 226.958 34.9072C221.492 34.9072 217 30.6911 217 25.4527C217 20.2851 220.964 16.0013 226.949 16.0013C229.408 15.9615 231.795 16.8326 233.649 18.4465Z" fill="#96A3BC"/>
<path d="M240.724 17L252.138 32.1579V17H253.847V35.0374H252.123L240.709 19.8148V35.0374H239V17H240.724Z" fill="#96A3BC"/>
<path d="M68.4978 17L75.0808 35.0497H71.1754L69.7625 31.1755H63.3214L61.9085 35.0497H58L64.5923 17H68.4978ZM64.6664 27.4923H68.4175L66.542 22.3647L64.6664 27.4923Z" fill="#3B5998"/>
<path d="M83.7018 17V35.0497H80V17H83.7018Z" fill="#3B5998"/>
<path d="M52.7911 33.7558H52.751C48.1021 33.7558 42.3951 33.6604 40.7941 33.6357L35.9015 25.4593L33.4707 29.6969L33.5138 29.7184L36.0465 31.0273L35.9077 31.0796L28.8372 33.8513L29.3585 28.1879L29.5128 26.5557L31.6352 28.4619C32.4619 26.993 33.2269 25.641 33.3689 25.3823C33.6218 24.9481 35.01 22.5614 35.8367 21.1478C35.8583 21.1786 35.8768 21.2125 35.8984 21.2464L36.2378 21.7884C37.2373 23.3898 38.2769 25.0651 38.536 25.4839C39.7699 27.4857 40.973 29.5029 42.1453 31.5354L48.8548 31.5139L42.8023 21.1324L36.756 10.7571L30.8146 21.1109C30.8045 21.133 30.7932 21.1546 30.7807 21.1755L26.1225 29.3212L26.0948 29.3674L25.629 28.5482L23.8798 25.4685L20.3292 19.4017L16.8526 25.4439C16.8431 25.4654 16.8317 25.486 16.8186 25.5055L11.997 33.8759L0.126479 33.8944H0L0.441134 33.1276L8.74247 18.5825L8.77641 18.524L19.3143 0.0400352L19.3389 0L19.8017 0.791465L24.8793 9.4945L26.0053 11.4285L28.0012 7.94853L25.3482 6.82446L32.4095 3.43687L32.2336 10.7356L29.9601 9.03872L27.304 13.6859L26.0207 15.9278L24.722 13.6674L24.6572 13.5504L19.3914 4.5209L10.7168 19.6357L10.6859 19.6973L3.92702 31.6494L10.7137 31.6278L14.8752 24.3938C14.8861 24.3734 14.8985 24.3538 14.9122 24.3352L20.2767 14.9793L20.7827 15.7985L25.8171 24.3599L26.0948 24.8372L28.1339 21.2802L28.8372 20.0484L28.8742 20.0176L36.793 6.31016C36.938 6.56269 37.1015 6.82446 37.2465 7.09239L44.7304 20.0176L52.4857 33.26L52.7572 33.7281L52.7911 33.7558Z" fill="#3B5998"/>
<path d="M104.307 17V35.0466H101.012L92.6895 24.1109V35.2037H89V17H92.2977L100.621 27.9388V17H104.307Z" fill="#3B5998"/>
</svg>
