<svg width="176" height="52" viewBox="0 0 176 52" fill="none" xmlns="http://www.w3.org/2000/svg">
<path fill-rule="evenodd" clip-rule="evenodd" d="M42.8006 16.1802L42.3211 18.7383H42.4013C43.0412 17.2988 44.3996 15.9404 46.1582 15.9404C46.7981 15.9404 47.4372 16.0198 47.9969 16.1802L47.037 20.0173C46.4781 19.5378 45.8382 19.4576 45.0387 19.4576C43.2801 19.4576 42.1615 21.0566 41.8415 22.8945L40.6427 28.5687H36.4062L38.3252 19.4567C38.565 18.3372 38.7246 17.298 38.8048 16.1793H42.8006V16.1802Z" fill="#3B5998"/>
<path fill-rule="evenodd" clip-rule="evenodd" d="M52.8713 28.8106C48.3149 28.8106 46.477 26.3345 46.477 23.2158C46.477 18.8198 49.594 15.9417 54.3902 15.9417C58.6266 15.9417 60.8647 18.3403 60.8647 21.4572C60.8647 26.5725 57.508 28.8106 52.8713 28.8106ZM54.2297 18.8991C52.1512 18.8991 50.8722 21.1372 50.8722 23.1356C50.8722 24.7346 51.751 25.8541 53.1905 25.8541C55.1888 25.8541 56.4678 24.1749 56.4678 21.377C56.4687 20.098 55.8296 18.8991 54.2297 18.8991ZM64.2223 12.0244H71.5766C73.336 12.0244 76.2925 12.6635 76.2925 15.7813C76.2925 18.0203 74.534 19.6978 71.8965 20.0178C73.8147 20.3377 75.1739 21.3762 75.1739 23.2149C75.1739 26.7321 72.1363 28.4113 68.2992 28.4915L60.7854 28.57L64.2223 12.0244ZM67.2599 18.5792H68.9383C70.777 18.5792 71.8957 17.7797 71.8957 16.6602C71.8957 15.3811 70.7762 15.1414 69.0978 15.1414H67.9783L67.2599 18.5792ZM65.8204 25.4539H67.0193C69.2574 25.4539 70.6968 24.814 70.6968 23.2158C70.6968 21.7772 69.6576 21.5374 67.6592 21.5374H66.62L65.8204 25.4539ZM88.9216 25.2935C88.6827 26.4121 88.5223 27.4522 88.3628 28.57H84.4463L84.7663 26.5717H84.6861C83.4872 27.9318 82.2082 28.8098 79.9701 28.8098C77.4922 28.8098 76.133 26.9719 76.133 24.5742C76.133 23.7747 76.2132 23.2952 76.4529 21.9359L77.5724 16.1806H81.9684L80.7696 22.0161C80.6894 22.5759 80.5298 23.2149 80.5298 23.8549C80.5298 24.5742 81.0094 25.2935 82.2082 25.2935C83.9668 25.2935 85.0862 23.6953 85.3252 21.8566L86.524 16.1815H90.8398L88.9216 25.2935ZM90.6819 25.2935C91.8006 25.7739 93.0002 26.0136 94.118 26.0136C94.8382 26.0136 96.5165 25.9326 96.5165 24.8942C96.5165 23.1356 91.4806 24.0144 91.4806 19.9384C91.4806 17.0604 94.839 15.9417 97.7154 15.9417C98.7555 15.9417 100.273 16.1815 101.793 16.661L100.913 19.4589C99.7948 18.9794 98.7555 18.7396 97.4773 18.7396C96.5174 18.7396 95.479 18.9794 95.479 19.8591C95.479 21.2183 100.833 21.1381 100.833 24.1757C100.833 27.2935 98.1949 28.8115 94.9986 28.8115C93.159 28.8917 91.1606 28.5717 89.8022 28.1733L90.6819 25.2935ZM103.871 16.1806H108.187L105.629 28.57H101.313L103.871 16.1806ZM109.625 19.4589C109.865 18.3394 110.025 17.3001 110.185 16.1815H114.101L113.783 18.1798H113.862C115.061 16.8206 116.341 15.9417 118.578 15.9417C121.055 15.9417 122.416 17.7805 122.416 20.1782C122.416 20.9777 122.335 21.4572 122.096 22.8156L120.976 28.57H116.58L117.7 22.7354C117.86 22.1757 118.02 21.5366 118.02 20.8966C118.02 20.1773 117.54 19.458 116.341 19.458C114.582 19.458 113.463 21.057 113.223 22.895L111.944 28.5692H107.707L109.625 19.4589ZM133.686 28.1724C132.248 28.5709 130.648 28.8106 129.37 28.8106C125.294 28.8106 123.056 26.3345 123.056 23.2158C123.056 20.3377 124.974 15.9417 130.408 15.9417C133.686 15.9417 136.164 17.5408 136.164 21.2977C136.164 21.7772 136.004 22.8967 135.844 23.616H127.051C127.132 24.9744 127.772 26.0145 130.408 26.0145C131.528 26.0145 133.046 25.6945 134.246 25.1339L133.686 28.1724ZM132.567 21.2175C132.567 19.8582 132.088 18.7396 130.488 18.7396C128.65 18.7396 127.612 20.0186 127.372 21.2175H132.567ZM136.484 25.2935C137.523 25.7739 138.722 26.0136 139.92 26.0136C140.64 26.0136 142.319 25.9326 142.319 24.8942C142.319 23.1356 137.203 24.0144 137.203 19.9384C137.203 17.0604 140.561 15.9417 143.439 15.9417C144.558 15.9417 145.997 16.1815 147.595 16.661L146.635 19.4589C145.597 18.9794 144.557 18.7396 143.279 18.7396C142.319 18.7396 141.28 18.9794 141.28 19.8591C141.28 21.2183 146.555 21.1381 146.555 24.1757C146.555 27.2935 143.997 28.8115 140.801 28.8115C138.963 28.8917 136.963 28.5717 135.604 28.1733L136.484 25.2935ZM147.275 25.2935C148.315 25.7739 149.513 26.0136 150.711 26.0136C151.432 26.0136 153.11 25.9326 153.11 24.8942C153.11 23.1356 147.996 24.0144 147.996 19.9384C147.996 17.0604 151.352 15.9417 154.23 15.9417C155.35 15.9417 156.788 16.1815 158.387 16.661L157.428 19.4589C156.388 18.9794 155.35 18.7396 154.07 18.7396C153.11 18.7396 152.072 18.9794 152.072 19.8591C152.072 21.2183 157.348 21.1381 157.348 24.1757C157.348 27.2935 154.79 28.8115 151.592 28.8115C149.754 28.8917 147.756 28.5717 146.396 28.1733L147.275 25.2935ZM30.4894 12.0244H26.0926L24.4142 19.6176H28.8111L29.7701 15.1414H31.1285C32.248 15.1414 33.3675 15.4614 33.3675 17.0604C33.3675 19.0587 31.7685 19.6184 30.0099 19.6184H28.8111L23.5354 23.9351L22.4961 28.5709H26.9723L28.1711 22.7363H30.4092C34.4059 22.7363 37.7635 20.6577 37.7635 16.5817C37.7635 12.3444 34.0868 12.0244 30.4894 12.0244Z" fill="#3B5998"/>
<path fill-rule="evenodd" clip-rule="evenodd" d="M104.671 12.0244H108.907L108.267 15.1422H104.031L104.671 12.0244ZM159.666 14.5825C159.666 13.6226 160.385 12.9033 161.344 12.9033C162.224 12.9033 162.943 13.6226 162.943 14.5825C162.943 15.5416 162.224 16.2609 161.344 16.2609C160.385 16.2609 159.666 15.5416 159.666 14.5825ZM161.344 16.5808C161.608 16.5834 161.869 16.5336 162.112 16.4341C162.356 16.3346 162.577 16.1875 162.763 16.0014C162.949 15.8153 163.097 15.5939 163.196 15.3503C163.296 15.1067 163.345 14.8456 163.343 14.5825C163.343 13.3828 162.465 12.5833 161.344 12.5833C160.224 12.5833 159.266 13.3828 159.266 14.5825C159.267 15.702 160.225 16.5808 161.344 16.5808ZM160.865 14.742H161.344L161.904 15.702H162.304L161.664 14.742C161.984 14.6618 162.224 14.5023 162.224 14.1021C162.224 13.6226 161.984 13.3828 161.424 13.3828H160.544V15.7011H160.864V14.742H160.865ZM160.865 14.4229V13.7028H161.344C161.664 13.7028 161.904 13.783 161.904 14.0227C161.904 14.4229 161.584 14.4229 161.344 14.4229H160.865ZM24.6545 39.6027C24.0948 39.6027 23.6152 39.6027 23.2151 39.5225C22.8157 39.362 22.4958 39.2827 22.1758 39.1223L22.4958 37.6837H22.6553C22.9753 37.9217 23.2953 38.1624 23.6946 38.3219C24.0146 38.4021 24.4139 38.4823 24.8943 38.4823C25.2936 38.4823 25.6136 38.4823 25.8533 38.3219C26.0931 38.2417 26.1733 38.002 26.1733 37.7639C26.1733 37.6837 26.1733 37.6837 26.0931 37.6035C26.0931 37.5233 26.0129 37.4431 25.9335 37.3637C25.8533 37.3637 25.6938 37.2835 25.5334 37.2033C25.3738 37.2033 25.134 37.1231 24.8943 37.0429C24.5743 36.9627 24.3345 36.8825 24.0948 36.7229C23.855 36.6427 23.6152 36.5625 23.4548 36.4029C23.2944 36.3227 23.2151 36.1632 23.0546 35.9234C22.9753 35.763 22.9753 35.6051 22.9753 35.3654C22.9753 34.7254 23.2151 34.2459 23.7748 33.9251C24.3345 33.5249 25.0538 33.3653 25.9335 33.3653C26.4131 33.3653 26.8124 33.3653 27.2126 33.4455C27.6128 33.5257 27.9319 33.6059 28.2519 33.7655L27.9319 35.1256H27.7715C27.5161 34.9479 27.249 34.7877 26.972 34.6461C26.5718 34.4857 26.2527 34.4857 25.7731 34.4857C25.3738 34.4857 25.1332 34.4857 24.8943 34.6461C24.6545 34.7263 24.5743 34.8858 24.5743 35.1256V35.3654C24.6545 35.4456 24.7347 35.4456 24.8141 35.5241C24.9231 35.6252 25.0656 35.6823 25.2142 35.6845C25.3747 35.7647 25.6136 35.8449 25.8542 35.9243C26.5735 36.0847 27.053 36.3244 27.2928 36.5642C27.6128 36.804 27.7723 37.1239 27.7723 37.5241C27.7723 37.9226 27.6921 38.1624 27.5326 38.4823C27.3608 38.7335 27.1438 38.9505 26.8926 39.1223C26.5726 39.2827 26.2527 39.4423 25.8533 39.5225C25.5342 39.6027 25.134 39.6027 24.6545 39.6027ZM30.5702 36.6444C30.6504 36.3244 30.8099 36.1649 31.0497 35.9243C31.2101 35.7638 31.4499 35.6845 31.7699 35.6845C32.0096 35.6845 32.2494 35.7647 32.3287 35.9243C32.4892 36.0045 32.5685 36.164 32.5685 36.4038V36.484C32.5685 36.5642 32.5685 36.5642 32.4883 36.6444H30.5702ZM32.4081 39.5225C32.7281 39.4423 33.048 39.362 33.287 39.2827L33.6069 38.083H33.4465C33.2067 38.2434 32.967 38.3228 32.647 38.403C32.4072 38.5634 32.0873 38.5634 31.7681 38.5634C31.2886 38.5634 30.9686 38.4832 30.7289 38.3236C30.4891 38.1632 30.4089 37.9234 30.4089 37.6052V37.525H33.7665C33.8467 37.3646 33.9269 37.1248 33.9269 36.9652C34.0071 36.8048 34.0071 36.6453 34.0071 36.4055C34.0071 35.926 33.8467 35.5258 33.4474 35.2075C33.1274 34.9678 32.6479 34.8073 31.9286 34.8073C31.449 34.8073 31.0488 34.8875 30.7297 35.0471C30.3304 35.2075 30.0104 35.3671 29.7707 35.6068C29.5309 35.9251 29.2911 36.1649 29.2109 36.5651C29.0505 36.885 28.9712 37.2852 28.9712 37.6845C28.9712 38.3228 29.2109 38.8032 29.6111 39.1231C30.0113 39.4431 30.6504 39.6027 31.3697 39.6027C31.769 39.6027 32.089 39.6027 32.4081 39.5225ZM39.1224 36.3244H39.0422C38.9629 36.3244 38.8826 36.3244 38.7222 36.2442H38.4023C38.2418 36.2442 38.0021 36.2442 37.8425 36.3244C37.6821 36.3244 37.4432 36.4046 37.2828 36.4849L36.5635 39.5233H35.124L36.1633 34.9669H37.6028L37.4423 35.6068C37.7623 35.3671 38.0012 35.2067 38.3212 35.1273C38.561 34.9669 38.8809 34.9669 39.1207 34.9669H39.4415L39.1224 36.3244ZM45.5978 34.966L42.8 39.5225H41.1216L40.4014 34.966H41.9211L42.2402 38.083L43.9988 34.966H45.5978ZM48.1559 34.966L47.1166 39.5225H45.6772L46.7164 34.966H48.1559ZM48.6354 33.1264L48.3957 34.2459H46.7966L47.0364 33.1264H48.6354ZM51.2729 39.6027C50.9529 39.6027 50.6338 39.6027 50.394 39.5225C50.1542 39.4423 49.9145 39.2827 49.6747 39.1223C49.5151 38.9619 49.3547 38.8023 49.1952 38.5625C49.0964 38.28 49.0426 37.9837 49.0356 37.6845C49.0356 37.2844 49.115 36.8842 49.2754 36.5651C49.4349 36.2451 49.6747 35.9251 49.9153 35.6853C50.2353 35.3671 50.5553 35.2067 50.9546 35.0471C51.3608 34.8832 51.7956 34.8017 52.2336 34.8073C52.5536 34.8073 52.7934 34.8073 53.1125 34.8875C53.3522 34.9678 53.592 35.048 53.8318 35.2075L53.5118 36.4055H53.3514C53.1848 36.2462 52.9963 36.1114 52.7917 36.0053C52.5519 35.9251 52.3923 35.8449 52.0724 35.8449C51.673 35.8449 51.2729 36.0053 50.9529 36.3244C50.7131 36.6444 50.5536 37.0446 50.5536 37.6043C50.5536 37.9226 50.6338 38.1624 50.7933 38.3228C51.0331 38.4832 51.2729 38.5625 51.5928 38.5625C51.9128 38.5625 52.1526 38.5625 52.3923 38.4021C52.6321 38.3219 52.8719 38.1624 53.0314 38.0019H53.1918L52.8719 39.2818C52.6321 39.4423 52.313 39.5216 52.1526 39.5216C51.9128 39.6027 51.5928 39.6027 51.2729 39.6027ZM55.9095 36.6444C56.069 36.3244 56.2295 36.1649 56.389 35.9243C56.6288 35.7638 56.8685 35.6845 57.1885 35.6845C57.4283 35.6845 57.5878 35.7647 57.7474 35.9243C57.9078 36.0045 57.9078 36.164 57.9078 36.4038V36.6444H55.9095ZM57.8276 39.5225C58.1476 39.4423 58.3873 39.362 58.7065 39.2827L58.9462 38.083H58.7867C58.6263 38.2434 58.3865 38.3228 58.0674 38.403C57.7474 38.5634 57.5076 38.5634 57.1885 38.5634C56.709 38.5634 56.389 38.4832 56.1492 38.3236C55.9095 38.1632 55.8293 37.9234 55.8293 37.6052V37.525H59.1869C59.2671 37.3646 59.2671 37.1248 59.3473 36.9652C59.3473 36.8048 59.4266 36.6453 59.4266 36.4055C59.4266 35.926 59.1869 35.5258 58.8669 35.2075C58.5469 34.9678 57.988 34.8073 57.3481 34.8073C56.9101 34.8021 56.4754 34.8836 56.069 35.0471C55.7491 35.2075 55.4291 35.3671 55.1893 35.6068C54.8702 35.9251 54.7098 36.1649 54.5502 36.5651C54.47 36.885 54.3898 37.2852 54.3898 37.6845C54.3898 38.3228 54.5502 38.8032 55.0298 39.1231C55.4291 39.4431 55.9888 39.6027 56.7883 39.6027C57.1885 39.6027 57.5085 39.6027 57.8276 39.5225ZM69.2588 33.4464L69.019 34.5667H66.2211L65.9814 35.6845H68.5395L68.2997 36.8048H65.6614L65.3414 38.3228H68.1393L67.8995 39.5225H63.5035L64.9421 33.4464H69.2588ZM71.3373 37.205L70.0583 34.966H71.5771L72.3766 36.3244L73.6556 34.966H75.334L73.0157 37.205L74.2947 39.5225H72.6957L71.9764 38.083L70.618 39.5225H68.9388L71.3373 37.205ZM77.8921 39.6027C77.5721 39.6027 77.2521 39.6027 77.0123 39.5225C76.7734 39.4423 76.5328 39.2827 76.293 39.1223C76.1326 38.9619 75.9731 38.8023 75.8135 38.5625C75.7145 38.2801 75.6604 37.9838 75.6531 37.6845C75.6531 37.2844 75.7333 36.8842 75.8929 36.5651C76.0533 36.2451 76.293 35.9251 76.5328 35.6853C76.8528 35.3671 77.1719 35.2067 77.5721 35.0471C77.9783 34.8832 78.4131 34.8017 78.8511 34.8073C79.1711 34.8073 79.4109 34.8073 79.73 34.8875C79.9698 34.9678 80.2095 35.048 80.4493 35.2075L80.1293 36.4055H79.9697C79.803 36.2464 79.6145 36.1116 79.41 36.0053C79.1702 35.9251 78.9305 35.8449 78.6907 35.8449C78.2905 35.8449 77.8912 36.0053 77.5712 36.3244C77.3315 36.6444 77.1711 37.0446 77.1711 37.6043C77.1711 37.9226 77.2513 38.1624 77.4108 38.3228C77.6506 38.4832 77.8903 38.5625 78.2103 38.5625C78.5303 38.5625 78.7701 38.5625 79.0098 38.4021C79.2496 38.3219 79.4894 38.1624 79.6489 38.0019H79.8093L79.4894 39.2818C79.2496 39.4423 78.9296 39.5216 78.7701 39.5216C78.5312 39.6027 78.2112 39.6027 77.8921 39.6027ZM82.928 36.6444C83.0074 36.3244 83.1678 36.1649 83.3273 35.9243C83.5671 35.7638 83.8069 35.6845 84.1268 35.6845C84.3666 35.6845 84.527 35.7647 84.6866 35.9243C84.847 36.0045 84.9263 36.164 84.9263 36.4038C84.9263 36.4038 84.9263 36.484 84.8461 36.484V36.6444H82.928ZM84.7668 39.5225C85.0868 39.4423 85.3257 39.362 85.6456 39.2827L85.8854 38.083H85.725C85.5646 38.2434 85.3248 38.3228 85.0057 38.403C84.6857 38.5634 84.446 38.5634 84.126 38.5634C83.6465 38.5634 83.3265 38.4832 83.0867 38.3236C82.8469 38.1632 82.7667 37.9234 82.7667 37.6052V37.525H86.1243C86.2045 37.3646 86.2839 37.1248 86.2839 36.9652C86.2839 36.8057 86.3641 36.6453 86.3641 36.4055C86.3641 35.926 86.2037 35.5258 85.8044 35.2075C85.4844 34.9678 84.9246 34.8073 84.2855 34.8073C83.806 34.8073 83.4067 34.8875 83.0867 35.0471C82.6874 35.2075 82.3674 35.3671 82.1276 35.6068C81.8879 35.9251 81.6481 36.1649 81.4877 36.5651C81.4075 36.885 81.3281 37.2852 81.3281 37.6845C81.3281 38.3228 81.4877 38.8032 81.9672 39.1231C82.3674 39.4431 82.9272 39.6027 83.7267 39.6027C84.1268 39.6027 84.4468 39.6027 84.7668 39.5225ZM90.3625 33.2083L88.9222 39.5225H87.4844L88.9222 33.2083H90.3625ZM93.4786 33.2083L92.0408 39.5225H90.522L92.0408 33.2083H93.4786ZM95.5571 36.6444C95.6373 36.3244 95.7969 36.1649 95.9573 35.9243C96.1971 35.7638 96.4369 35.6845 96.7577 35.6845C96.9974 35.6845 97.1579 35.7647 97.3174 35.9243C97.4778 36.0045 97.5572 36.164 97.5572 36.4038V36.484C97.5572 36.5642 97.477 36.5642 97.477 36.6444H95.5571ZM97.3968 39.5225C97.715 39.4423 98.035 39.362 98.2748 39.2827L98.5947 38.083H98.355C98.1946 38.2434 97.9548 38.3228 97.6365 38.403C97.3968 38.5634 97.0768 38.5634 96.7568 38.5634C96.2773 38.5634 95.9565 38.4832 95.7167 38.3236C95.4786 38.1632 95.3984 37.9234 95.3984 37.6052V37.525H98.7552C98.8354 37.3646 98.9156 37.1248 98.9156 36.9652C98.9958 36.8048 98.9958 36.6453 98.9958 36.4055C98.9958 35.926 98.8354 35.5258 98.436 35.2075C98.1161 34.9678 97.6374 34.8073 96.9181 34.8073C96.4386 34.8073 96.0384 34.8875 95.7184 35.0471C95.3199 35.2075 95 35.3671 94.7602 35.6068C94.5204 35.9251 94.2807 36.1649 94.1202 36.5651C94.04 36.885 93.9598 37.2852 93.9598 37.6845C93.9598 38.3228 94.1996 38.8032 94.5998 39.1231C94.9999 39.4431 95.6382 39.6027 96.3583 39.6027C96.7568 39.6027 97.0768 39.6027 97.3968 39.5225ZM105.469 36.0045C105.469 36.0847 105.469 36.1649 105.389 36.2442V36.5642L104.671 39.5225H103.231L103.71 37.2041C103.79 37.0437 103.79 36.9644 103.79 36.804C103.87 36.7238 103.87 36.5642 103.87 36.484C103.87 36.3236 103.79 36.164 103.71 36.0838C103.63 36.0036 103.47 36.0036 103.231 36.0036H102.83C102.67 36.0838 102.51 36.164 102.271 36.2434L101.552 39.5216H100.112L101.152 34.9652H102.591L102.51 35.4447C102.83 35.205 103.07 35.1247 103.311 34.9652C103.55 34.885 103.87 34.8048 104.111 34.8048C104.591 34.8048 104.91 34.885 105.069 35.1248C105.309 35.286 105.469 35.606 105.469 36.0045ZM108.827 39.6027C108.507 39.6027 108.187 39.6027 107.947 39.5225C107.676 39.4566 107.427 39.3183 107.227 39.1223C106.987 38.9619 106.829 38.8023 106.749 38.5625C106.668 38.3228 106.588 38.0028 106.588 37.6845C106.588 37.2844 106.668 36.8842 106.828 36.5651C106.987 36.2451 107.146 35.9251 107.466 35.6853C107.706 35.3671 108.106 35.2067 108.506 35.0471C108.906 34.8875 109.305 34.8073 109.784 34.8073C110.024 34.8073 110.344 34.8073 110.585 34.8875C110.905 34.9678 111.145 35.048 111.385 35.2075L111.065 36.4055H110.825C110.665 36.2451 110.505 36.0855 110.346 36.0053C110.106 35.9251 109.866 35.8449 109.626 35.8449C109.146 35.8449 108.827 36.0053 108.507 36.3244C108.267 36.6444 108.107 37.0446 108.107 37.6043C108.107 37.9226 108.187 38.1624 108.347 38.3228C108.506 38.4832 108.826 38.5625 109.145 38.5625C109.465 38.5625 109.705 38.5625 109.946 38.4021C110.185 38.3219 110.346 38.1624 110.505 38.0019H110.745L110.425 39.2818C110.105 39.4423 109.865 39.5216 109.625 39.5216C109.465 39.6027 109.145 39.6027 108.827 39.6027ZM113.464 36.6444C113.544 36.3244 113.703 36.1649 113.943 35.9243C114.102 35.7638 114.422 35.6845 114.662 35.6845C114.982 35.6845 115.141 35.7647 115.302 35.9243C115.382 36.0045 115.462 36.164 115.462 36.4038V36.6444H113.464ZM115.302 39.5225L116.26 39.2827L116.5 38.083H116.341C116.101 38.2434 115.861 38.3228 115.621 38.403C115.301 38.5634 114.981 38.5634 114.661 38.5634C114.261 38.5634 113.86 38.4832 113.622 38.3236C113.462 38.1632 113.302 37.9234 113.302 37.6052V37.525H116.738C116.738 37.3646 116.819 37.1248 116.899 36.9652V36.4055C116.899 35.926 116.739 35.5258 116.419 35.2075C116.021 34.9678 115.541 34.8073 114.821 34.8073C114.421 34.8073 114.021 34.8875 113.623 35.0471C113.223 35.2075 112.903 35.3671 112.663 35.6068C112.424 35.9251 112.263 36.1649 112.104 36.5651C111.943 36.885 111.864 37.2852 111.864 37.6845C111.864 38.3228 112.104 38.8032 112.504 39.1231C112.983 39.4431 113.544 39.6027 114.342 39.6027C114.662 39.6027 114.982 39.6027 115.302 39.5225Z" fill="#3B5998"/>
</svg>
